<svg width="32" height="32" viewBox="0 0 32 32" fill="none" xmlns="http://www.w3.org/2000/svg">
<path fill-rule="evenodd" clip-rule="evenodd" d="M16 2C8.266 2 2 8.26 2 15.986C2 22.166 6.012 27.406 11.574 29.256C12.274 29.384 12.53 28.952 12.53 28.582C12.53 28.25 12.518 27.37 12.51 26.202C8.616 27.048 7.796 24.328 7.796 24.328C7.158 22.712 6.24 22.282 6.24 22.282C4.97 21.414 6.336 21.432 6.336 21.432C7.742 21.532 8.482 22.872 8.482 22.872C9.73 25.012 11.758 24.392 12.556 24.036C12.682 23.132 13.044 22.516 13.444 22.166C10.336 21.814 7.068 20.614 7.068 15.254C7.068 13.728 7.614 12.478 8.508 11.502C8.364 11.148 7.884 9.726 8.648 7.802C8.648 7.802 9.82 7.424 12.496 9.234C13.6381 8.92285 14.8163 8.76414 16 8.762C17.19 8.768 18.388 8.922 19.506 9.234C22.178 7.424 23.352 7.8 23.352 7.8C24.116 9.726 23.636 11.148 23.492 11.5C24.388 12.48 24.932 13.728 24.932 15.254C24.932 20.626 21.656 21.81 18.538 22.154C19.04 22.586 19.488 23.44 19.488 24.746C19.488 26.614 19.47 28.122 19.47 28.582C19.47 28.956 19.724 29.39 20.434 29.254C23.2188 28.3254 25.6409 26.5446 27.3577 24.1634C29.0745 21.7823 29.9988 18.9215 30 15.986C29.9979 12.2749 28.5218 8.71663 25.8963 6.0938C23.2709 3.47097 19.7111 1.99841 16 2Z" fill="#161514"/>
</svg>
