<svg width="520" height="446" viewBox="0 0 520 446" fill="none" xmlns="http://www.w3.org/2000/svg">
<g clip-path="url(#clip0_7_82)">
<path d="M217.212 433.996H229.146L234.823 387.939L217.21 387.94L217.212 433.996Z" fill="#FFB8B8"/>
<path d="M252.162 445.083L214.656 445.085L214.655 430.585L237.67 430.584C239.573 430.584 241.458 430.959 243.216 431.688C244.974 432.416 246.571 433.484 247.917 434.83C249.263 436.177 250.33 437.775 251.059 439.534C251.787 441.293 252.162 443.179 252.162 445.083Z" fill="#1F2937"/>
<path d="M107.078 427.146L118.765 429.564L133.646 385.611L116.398 382.043L107.078 427.146Z" fill="#FFB8B8"/>
<path d="M139.059 445.085L102.33 437.486L105.264 423.287L127.803 427.95C131.566 428.728 134.867 430.971 136.978 434.184C139.089 437.398 139.838 441.319 139.059 445.085Z" fill="#1F2937"/>
<path d="M139.448 278.957C138.442 277.94 137.671 276.713 137.189 275.365C136.708 274.017 136.528 272.579 136.661 271.153C136.795 269.728 137.24 268.349 137.964 267.114C138.688 265.879 139.674 264.818 140.852 264.005L131.592 230.456L148.786 236.034L154.944 267.038C156.177 269.109 156.608 271.56 156.155 273.928C155.703 276.296 154.397 278.415 152.487 279.884C150.577 281.354 148.195 282.071 145.792 281.9C143.389 281.729 141.131 280.682 139.448 278.957Z" fill="#FFB8B8"/>
<path d="M213.726 417.109C212.684 417.111 211.677 416.74 210.884 416.065C210.091 415.39 209.565 414.453 209.4 413.425L187.159 290.803C187.111 290.489 186.962 290.2 186.735 289.979C186.509 289.758 186.216 289.616 185.902 289.576C185.588 289.536 185.269 289.599 184.994 289.755C184.718 289.912 184.501 290.154 184.376 290.445L134.828 405.148C134.387 406.153 133.588 406.957 132.587 407.404C131.585 407.851 130.453 407.908 129.412 407.565L112.007 401.713C111.44 401.522 110.917 401.217 110.472 400.817C110.027 400.416 109.669 399.928 109.42 399.384C109.17 398.839 109.035 398.249 109.023 397.65C109.01 397.051 109.12 396.456 109.347 395.902L133.301 337.188L153.299 248.601L153.44 248.494C153.826 248.201 192.298 219.469 218.587 242.451C242.645 263.482 238.168 383.663 237.027 407.541C236.986 408.485 236.639 409.389 236.038 410.118C235.438 410.847 234.616 411.36 233.699 411.581L214.789 416.98C214.441 417.066 214.084 417.109 213.726 417.109Z" fill="#1F2937"/>
<path d="M176.026 144.693C189.23 144.693 199.934 133.982 199.934 120.771C199.934 107.559 189.23 96.849 176.026 96.849C162.822 96.849 152.118 107.559 152.118 120.771C152.118 133.982 162.822 144.693 176.026 144.693Z" fill="#FFB8B8"/>
<path d="M222.512 268.244C221.505 267.226 220.734 266 220.253 264.651C219.771 263.303 219.591 261.865 219.725 260.44C219.859 259.014 220.303 257.635 221.027 256.4C221.751 255.165 222.737 254.104 223.915 253.292L214.655 219.743L231.85 225.321L238.007 256.324C239.241 258.395 239.671 260.847 239.219 263.215C238.766 265.582 237.461 267.701 235.551 269.171C233.641 270.64 231.258 271.357 228.855 271.186C226.452 271.015 224.195 269.968 222.512 268.244Z" fill="#FFB8B8"/>
<path d="M149.528 258.681C149.196 258.681 148.867 258.615 148.56 258.489C138.463 254.383 146.514 174.226 146.862 170.816L146.9 170.67C147.15 170.1 147.402 169.541 147.657 168.994C150.145 163.46 154.312 158.851 159.566 155.82C164.821 152.79 170.896 151.493 176.929 152.114C183.06 152.585 188.893 154.949 193.623 158.879C198.354 162.809 201.748 168.112 203.338 174.055L222.047 242.639C222.246 243.368 222.254 244.135 222.069 244.868C221.884 245.6 221.513 246.273 220.992 246.819C220.471 247.366 219.818 247.769 219.095 247.988C218.372 248.207 217.606 248.236 216.869 248.071C202.313 244.818 167.038 239.043 153.888 255.636C152.272 257.675 150.835 258.681 149.528 258.681Z" fill="#017B8E"/>
<path d="M222.021 252.096C221.541 252.096 221.065 252.017 220.61 251.862C220.05 251.675 219.534 251.375 219.094 250.981C218.653 250.587 218.298 250.108 218.049 249.572L201.767 214.841L185.925 169.211C185.247 167.25 185.147 165.134 185.638 163.117C186.129 161.1 187.19 159.267 188.694 157.837C189.936 156.658 191.442 155.792 193.085 155.311C194.729 154.83 196.463 154.747 198.145 155.069C199.827 155.392 201.408 156.11 202.757 157.165C204.106 158.22 205.185 159.582 205.905 161.137L226.985 206.709L243.434 236.437C243.717 236.949 243.895 237.513 243.957 238.094C244.019 238.676 243.964 239.265 243.795 239.825C243.626 240.385 243.347 240.906 242.974 241.357C242.601 241.807 242.141 242.178 241.622 242.448L224.036 251.599C223.414 251.925 222.722 252.095 222.021 252.096Z" fill="#017B8E"/>
<path d="M150.879 260.634C150.721 260.634 150.564 260.626 150.407 260.609L130.695 258.517C130.108 258.455 129.54 258.274 129.024 257.987C128.509 257.699 128.056 257.31 127.695 256.843C127.333 256.376 127.07 255.841 126.92 255.27C126.77 254.698 126.738 254.103 126.824 253.518L132.424 215.568L144.407 168.775C144.924 166.765 146.009 164.946 147.532 163.536C149.055 162.126 150.951 161.185 152.994 160.824C154.681 160.528 156.413 160.638 158.049 161.145C159.685 161.652 161.176 162.542 162.401 163.74C163.625 164.938 164.546 166.411 165.088 168.036C165.631 169.662 165.779 171.393 165.52 173.086L157.935 222.727L155.236 256.599C155.148 257.696 154.651 258.72 153.844 259.467C153.037 260.215 151.979 260.631 150.879 260.634Z" fill="#017B8E"/>
<path d="M179.803 107.907L199.672 106.459C200.342 101.962 199.485 97.3695 197.239 93.4168C194.993 89.464 191.486 86.3793 187.281 84.6561C178.812 81.4373 168.301 85.0127 165.047 90.1406C160.763 89.7686 156.451 90.3791 152.438 91.9257C148.425 93.4723 144.818 95.9143 141.89 99.0659C138.963 102.218 136.792 105.996 135.544 110.113C134.295 114.23 134.002 118.578 134.685 122.826C135.369 127.074 137.012 131.11 139.489 134.627C141.967 138.144 145.213 141.049 148.981 143.122C152.75 145.194 156.941 146.38 161.236 146.587C165.531 146.795 169.817 146.02 173.768 144.321C165.568 132.806 169.778 114.504 179.803 107.907Z" fill="#030712"/>
<path d="M143.67 96.9262C137.504 91.29 129.968 86.7847 121.677 85.7893C113.385 84.7939 104.326 87.8338 99.5523 94.69C94.7787 101.546 95.6105 112.203 102.325 117.171C105.082 119.211 107.174 122.023 108.336 125.251C109.497 128.479 109.677 131.979 108.853 135.309C108.029 138.64 106.237 141.651 103.704 143.963C101.171 146.276 98.0095 147.785 94.6196 148.302C82.2911 150.181 73.0083 162.891 73.9313 175.335C74.8543 187.778 85.0448 198.627 97.1992 201.419C109.354 204.211 122.652 199.409 131.135 190.263C139.618 181.117 143.417 168.132 142.451 155.692C141.484 143.252 136.026 131.4 128.179 121.702C126.048 119.069 127.649 114.893 130.386 112.899C133.124 110.905 136.611 110.348 139.815 109.253C143.02 108.158 146.328 106.096 147.067 102.789C147.806 99.4829 144.059 95.6214 143.67 96.9262Z" fill="#030712"/>
<path d="M503.452 170.446H366.201C361.814 170.441 357.608 168.695 354.506 165.59C351.403 162.486 349.658 158.278 349.653 153.888V16.5576C349.658 12.1677 351.403 7.95913 354.506 4.85506C357.608 1.75098 361.814 0.00494182 366.201 0H503.452C507.839 0.00494182 512.045 1.75098 515.148 4.85506C518.25 7.95913 519.995 12.1677 520 16.5576V153.888C519.995 158.278 518.25 162.486 515.148 165.59C512.045 168.695 507.839 170.441 503.452 170.446ZM366.201 1.94795C362.33 1.95233 358.619 3.49296 355.882 6.23184C353.144 8.97073 351.605 12.6842 351.6 16.5576V153.888C351.605 157.761 353.144 161.475 355.882 164.214C358.619 166.953 362.33 168.493 366.201 168.498H503.452C507.323 168.493 511.034 166.953 513.772 164.214C516.509 161.475 518.049 157.761 518.053 153.888V16.5576C518.049 12.6842 516.509 8.97073 513.772 6.23184C511.034 3.49296 507.323 1.95233 503.452 1.94795H366.201Z" fill="white"/>
<path d="M430.424 111.177C427.604 111.203 424.81 110.634 422.224 109.508C419.638 108.382 417.318 106.724 415.415 104.642C410.97 99.7852 408.795 92.7412 409.448 85.3162C409.991 78.6979 412.762 72.4597 417.308 67.6214C419.477 65.2733 422.102 63.3933 425.023 62.0968C427.944 60.8002 431.099 60.1145 434.295 60.0815C437.255 60.0685 440.185 60.6792 442.894 61.8739C445.603 63.0686 448.03 64.8205 450.017 67.0156C452.282 69.5791 453.992 72.5845 455.038 75.8423C456.084 79.1 456.443 82.5393 456.094 85.9431C455.428 93.4889 452.499 99.8976 447.622 104.476C442.954 108.823 436.801 111.22 430.424 111.177ZM434.295 67.2239C425.273 67.2239 417.482 75.4461 416.559 85.9426C416.081 91.3774 417.582 96.4348 420.679 99.8183C421.91 101.174 423.416 102.252 425.096 102.979C426.777 103.706 428.593 104.066 430.424 104.035C438.84 104.035 447.843 98.2466 448.983 85.3155C449.246 82.8987 449.006 80.4537 448.278 78.1343C447.55 75.8149 446.349 73.6715 444.753 71.8391C443.431 70.3785 441.816 69.2128 440.015 68.4176C438.213 67.6225 436.264 67.2157 434.295 67.2239Z" fill="white"/>
<path d="M464.349 111.271C463.553 111.273 462.759 111.205 461.975 111.067C459.914 110.712 457.948 109.94 456.195 108.8C454.441 107.659 452.938 106.174 451.777 104.434C449.241 100.656 448.171 95.5934 448.681 89.7939L451.009 63.353C451.094 62.4108 451.549 61.5409 452.274 60.934C452.999 60.3271 453.935 60.0329 454.877 60.116C455.819 60.199 456.689 60.6525 457.297 61.3769C457.905 62.1013 458.201 63.0375 458.12 63.9799L455.792 90.4206C455.125 98.0016 457.902 103.091 463.221 104.035C465.047 104.358 468.327 103.856 471.563 101.375C474.868 98.8408 479.004 93.6036 479.933 83.0443C481 70.9301 477.906 60.5304 470.986 52.969C463.731 45.042 452.748 40.852 439.226 40.852C414.369 40.852 392.378 61.0789 390.202 85.9409C389.777 90.6184 390.113 95.334 391.198 99.9036C391.42 100.824 391.267 101.796 390.773 102.604C390.279 103.411 389.484 103.99 388.564 104.212C387.644 104.433 386.673 104.28 385.866 103.786C385.058 103.292 384.48 102.497 384.259 101.576C382.992 96.2555 382.598 90.7647 383.091 85.3179C384.513 71.3318 391.012 58.3533 401.358 48.8416C411.704 39.3299 425.177 33.9459 439.226 33.7096C454.804 33.7096 467.607 38.7014 476.25 48.1454C484.44 57.094 488.273 69.7105 487.044 83.671C485.887 96.8181 480.348 103.638 475.904 107.045C472.61 109.665 468.556 111.148 464.349 111.271Z" fill="white"/>
<path d="M430.709 137.549C418.994 137.643 407.646 133.463 398.788 125.792C398.435 125.482 398.147 125.106 397.94 124.685C397.733 124.264 397.611 123.806 397.58 123.338C397.55 122.87 397.612 122.4 397.764 121.956C397.915 121.511 398.152 121.101 398.462 120.749C398.772 120.396 399.148 120.108 399.569 119.902C399.99 119.695 400.447 119.573 400.915 119.543C401.383 119.513 401.853 119.576 402.297 119.728C402.74 119.88 403.15 120.118 403.502 120.428C411.057 126.952 420.729 130.5 430.709 130.407C438.711 130.407 443.553 129.872 451.093 126.702C451.525 126.521 451.989 126.426 452.457 126.423C452.926 126.421 453.391 126.511 453.825 126.688C454.259 126.865 454.654 127.126 454.987 127.456C455.32 127.786 455.585 128.178 455.767 128.611C455.949 129.043 456.043 129.507 456.046 129.976C456.048 130.446 455.958 130.91 455.78 131.345C455.603 131.779 455.342 132.174 455.012 132.507C454.682 132.841 454.29 133.106 453.858 133.287C445.237 136.911 439.524 137.549 430.709 137.549Z" fill="white"/>
<path d="M371.842 446H0.973409C0.715245 446 0.467669 445.897 0.285119 445.715C0.102569 445.532 0 445.284 0 445.026C0 444.768 0.102569 444.52 0.285119 444.337C0.467669 444.155 0.715245 444.052 0.973409 444.052H371.842C372.101 444.052 372.348 444.155 372.531 444.337C372.713 444.52 372.816 444.768 372.816 445.026C372.816 445.284 372.713 445.532 372.531 445.715C372.348 445.897 372.101 446 371.842 446Z" fill="white"/>
</g>
<defs>
<clipPath id="clip0_7_82">
<rect width="520" height="446" fill="white"/>
</clipPath>
</defs>
</svg>
